<mxfile host="app.diagrams.net" modified="2023-11-12T08:42:20.621Z" agent="Mozilla/5.0 (Windows NT 10.0; Win64; x64) AppleWebKit/537.36 (KHTML, like Gecko) Chrome/119.0.0.0 Safari/537.36" etag="SrgrCLpe6dqHaKfBx4qX" version="22.1.0" type="device">
  <diagram id="C5RBs43oDa-KdzZeNtuy" name="Page-1">
    <mxGraphModel dx="2357" dy="2540" grid="1" gridSize="10" guides="1" tooltips="1" connect="1" arrows="1" fold="1" page="1" pageScale="1" pageWidth="827" pageHeight="1169" math="0" shadow="0">
      <root>
        <mxCell id="WIyWlLk6GJQsqaUBKTNV-0" />
        <mxCell id="WIyWlLk6GJQsqaUBKTNV-1" parent="WIyWlLk6GJQsqaUBKTNV-0" />
        <mxCell id="l6OPGBZG9V-GJjDotJNE-15" value="アプリ起動" style="strokeWidth=2;html=1;shape=mxgraph.flowchart.terminator;whiteSpace=wrap;" vertex="1" parent="WIyWlLk6GJQsqaUBKTNV-1">
          <mxGeometry x="331" y="30" width="100" height="60" as="geometry" />
        </mxCell>
        <mxCell id="l6OPGBZG9V-GJjDotJNE-19" style="edgeStyle=orthogonalEdgeStyle;rounded=0;orthogonalLoop=1;jettySize=auto;html=1;exitX=0;exitY=0.5;exitDx=0;exitDy=0;exitPerimeter=0;entryX=1;entryY=0.5;entryDx=0;entryDy=0;" edge="1" parent="WIyWlLk6GJQsqaUBKTNV-1" source="l6OPGBZG9V-GJjDotJNE-17" target="l6OPGBZG9V-GJjDotJNE-21">
          <mxGeometry relative="1" as="geometry">
            <mxPoint x="523" y="266.66666666666674" as="targetPoint" />
          </mxGeometry>
        </mxCell>
        <mxCell id="l6OPGBZG9V-GJjDotJNE-20" value="YES" style="edgeLabel;html=1;align=center;verticalAlign=middle;resizable=0;points=[];" vertex="1" connectable="0" parent="l6OPGBZG9V-GJjDotJNE-19">
          <mxGeometry x="-0.2902" y="3" relative="1" as="geometry">
            <mxPoint as="offset" />
          </mxGeometry>
        </mxCell>
        <mxCell id="l6OPGBZG9V-GJjDotJNE-22" style="edgeStyle=orthogonalEdgeStyle;rounded=0;orthogonalLoop=1;jettySize=auto;html=1;exitX=0.5;exitY=1;exitDx=0;exitDy=0;exitPerimeter=0;" edge="1" parent="WIyWlLk6GJQsqaUBKTNV-1" source="l6OPGBZG9V-GJjDotJNE-17">
          <mxGeometry relative="1" as="geometry">
            <mxPoint x="383" y="347" as="targetPoint" />
          </mxGeometry>
        </mxCell>
        <mxCell id="l6OPGBZG9V-GJjDotJNE-25" value="NO" style="edgeLabel;html=1;align=center;verticalAlign=middle;resizable=0;points=[];" vertex="1" connectable="0" parent="l6OPGBZG9V-GJjDotJNE-22">
          <mxGeometry x="-0.1153" relative="1" as="geometry">
            <mxPoint as="offset" />
          </mxGeometry>
        </mxCell>
        <mxCell id="l6OPGBZG9V-GJjDotJNE-17" value="アカウント&lt;br&gt;認証していない" style="strokeWidth=2;html=1;shape=mxgraph.flowchart.decision;whiteSpace=wrap;" vertex="1" parent="WIyWlLk6GJQsqaUBKTNV-1">
          <mxGeometry x="333" y="227" width="100" height="80" as="geometry" />
        </mxCell>
        <mxCell id="l6OPGBZG9V-GJjDotJNE-21" value="アカウント認証へ" style="rounded=1;whiteSpace=wrap;html=1;absoluteArcSize=1;arcSize=14;strokeWidth=2;" vertex="1" parent="WIyWlLk6GJQsqaUBKTNV-1">
          <mxGeometry x="20" y="242" width="100" height="50" as="geometry" />
        </mxCell>
        <mxCell id="l6OPGBZG9V-GJjDotJNE-38" style="edgeStyle=orthogonalEdgeStyle;rounded=0;orthogonalLoop=1;jettySize=auto;html=1;exitX=0.5;exitY=1;exitDx=0;exitDy=0;" edge="1" parent="WIyWlLk6GJQsqaUBKTNV-1" source="l6OPGBZG9V-GJjDotJNE-26" target="l6OPGBZG9V-GJjDotJNE-37">
          <mxGeometry relative="1" as="geometry" />
        </mxCell>
        <mxCell id="l6OPGBZG9V-GJjDotJNE-43" style="rounded=0;orthogonalLoop=1;jettySize=auto;html=1;exitX=0.25;exitY=1;exitDx=0;exitDy=0;edgeStyle=orthogonalEdgeStyle;" edge="1" parent="WIyWlLk6GJQsqaUBKTNV-1" source="l6OPGBZG9V-GJjDotJNE-26" target="l6OPGBZG9V-GJjDotJNE-42">
          <mxGeometry relative="1" as="geometry">
            <mxPoint x="270" y="620" as="sourcePoint" />
          </mxGeometry>
        </mxCell>
        <mxCell id="l6OPGBZG9V-GJjDotJNE-26" value="絞り込みされた&lt;br&gt;メールのタイトル表示" style="rounded=1;whiteSpace=wrap;html=1;absoluteArcSize=1;arcSize=14;strokeWidth=2;" vertex="1" parent="WIyWlLk6GJQsqaUBKTNV-1">
          <mxGeometry x="331" y="527" width="100" height="50" as="geometry" />
        </mxCell>
        <mxCell id="l6OPGBZG9V-GJjDotJNE-35" style="rounded=0;orthogonalLoop=1;jettySize=auto;html=1;exitX=0.5;exitY=1;exitDx=0;exitDy=0;exitPerimeter=0;entryX=0.5;entryY=0;entryDx=0;entryDy=0;" edge="1" parent="WIyWlLk6GJQsqaUBKTNV-1" source="l6OPGBZG9V-GJjDotJNE-29" target="l6OPGBZG9V-GJjDotJNE-152">
          <mxGeometry relative="1" as="geometry">
            <mxPoint x="575.0000000000002" y="902" as="targetPoint" />
          </mxGeometry>
        </mxCell>
        <mxCell id="l6OPGBZG9V-GJjDotJNE-36" value="YES" style="edgeLabel;html=1;align=center;verticalAlign=middle;resizable=0;points=[];" vertex="1" connectable="0" parent="l6OPGBZG9V-GJjDotJNE-35">
          <mxGeometry x="0.0074" y="-2" relative="1" as="geometry">
            <mxPoint as="offset" />
          </mxGeometry>
        </mxCell>
        <mxCell id="l6OPGBZG9V-GJjDotJNE-29" value="メールのタイトルをクリック" style="strokeWidth=2;html=1;shape=mxgraph.flowchart.decision;whiteSpace=wrap;" vertex="1" parent="WIyWlLk6GJQsqaUBKTNV-1">
          <mxGeometry x="525" y="717" width="100" height="80" as="geometry" />
        </mxCell>
        <mxCell id="l6OPGBZG9V-GJjDotJNE-30" style="edgeStyle=orthogonalEdgeStyle;rounded=0;orthogonalLoop=1;jettySize=auto;html=1;exitX=0.75;exitY=1;exitDx=0;exitDy=0;entryX=0.5;entryY=0;entryDx=0;entryDy=0;entryPerimeter=0;" edge="1" parent="WIyWlLk6GJQsqaUBKTNV-1" source="l6OPGBZG9V-GJjDotJNE-26" target="l6OPGBZG9V-GJjDotJNE-29">
          <mxGeometry relative="1" as="geometry" />
        </mxCell>
        <mxCell id="l6OPGBZG9V-GJjDotJNE-40" style="edgeStyle=orthogonalEdgeStyle;rounded=0;orthogonalLoop=1;jettySize=auto;html=1;exitX=0.5;exitY=1;exitDx=0;exitDy=0;exitPerimeter=0;entryX=0.5;entryY=0;entryDx=0;entryDy=0;" edge="1" parent="WIyWlLk6GJQsqaUBKTNV-1" source="l6OPGBZG9V-GJjDotJNE-37">
          <mxGeometry relative="1" as="geometry">
            <mxPoint x="381" y="902" as="targetPoint" />
          </mxGeometry>
        </mxCell>
        <mxCell id="l6OPGBZG9V-GJjDotJNE-41" value="YES" style="edgeLabel;html=1;align=center;verticalAlign=middle;resizable=0;points=[];" vertex="1" connectable="0" parent="l6OPGBZG9V-GJjDotJNE-40">
          <mxGeometry x="-0.054" relative="1" as="geometry">
            <mxPoint x="-1" as="offset" />
          </mxGeometry>
        </mxCell>
        <mxCell id="l6OPGBZG9V-GJjDotJNE-37" value="キーワード設定&lt;br&gt;ボタンをクリック" style="strokeWidth=2;html=1;shape=mxgraph.flowchart.decision;whiteSpace=wrap;" vertex="1" parent="WIyWlLk6GJQsqaUBKTNV-1">
          <mxGeometry x="331" y="717" width="100" height="80" as="geometry" />
        </mxCell>
        <mxCell id="l6OPGBZG9V-GJjDotJNE-45" style="edgeStyle=orthogonalEdgeStyle;rounded=0;orthogonalLoop=1;jettySize=auto;html=1;exitX=0.5;exitY=1;exitDx=0;exitDy=0;exitPerimeter=0;entryX=0.5;entryY=0;entryDx=0;entryDy=0;" edge="1" parent="WIyWlLk6GJQsqaUBKTNV-1" source="l6OPGBZG9V-GJjDotJNE-42">
          <mxGeometry relative="1" as="geometry">
            <mxPoint x="221" y="902" as="targetPoint" />
          </mxGeometry>
        </mxCell>
        <mxCell id="l6OPGBZG9V-GJjDotJNE-46" value="YES" style="edgeLabel;html=1;align=center;verticalAlign=middle;resizable=0;points=[];" vertex="1" connectable="0" parent="l6OPGBZG9V-GJjDotJNE-45">
          <mxGeometry x="-0.054" y="1" relative="1" as="geometry">
            <mxPoint as="offset" />
          </mxGeometry>
        </mxCell>
        <mxCell id="l6OPGBZG9V-GJjDotJNE-42" value="通知設定ボタンを&lt;br&gt;クリック" style="strokeWidth=2;html=1;shape=mxgraph.flowchart.decision;whiteSpace=wrap;" vertex="1" parent="WIyWlLk6GJQsqaUBKTNV-1">
          <mxGeometry x="171" y="717" width="100" height="80" as="geometry" />
        </mxCell>
        <mxCell id="l6OPGBZG9V-GJjDotJNE-49" value="メールタイトルの&lt;br&gt;取得" style="rounded=1;whiteSpace=wrap;html=1;absoluteArcSize=1;arcSize=14;strokeWidth=2;" vertex="1" parent="WIyWlLk6GJQsqaUBKTNV-1">
          <mxGeometry x="333" y="347" width="100" height="50" as="geometry" />
        </mxCell>
        <mxCell id="l6OPGBZG9V-GJjDotJNE-53" style="edgeStyle=orthogonalEdgeStyle;rounded=0;orthogonalLoop=1;jettySize=auto;html=1;exitX=0.5;exitY=1;exitDx=0;exitDy=0;exitPerimeter=0;entryX=0.5;entryY=0;entryDx=0;entryDy=0;" edge="1" parent="WIyWlLk6GJQsqaUBKTNV-1" source="l6OPGBZG9V-GJjDotJNE-51" target="l6OPGBZG9V-GJjDotJNE-26">
          <mxGeometry relative="1" as="geometry" />
        </mxCell>
        <mxCell id="l6OPGBZG9V-GJjDotJNE-51" value="キーワードの&lt;br&gt;取得" style="strokeWidth=2;html=1;shape=mxgraph.flowchart.database;whiteSpace=wrap;" vertex="1" parent="WIyWlLk6GJQsqaUBKTNV-1">
          <mxGeometry x="333" y="437" width="100" height="60" as="geometry" />
        </mxCell>
        <mxCell id="l6OPGBZG9V-GJjDotJNE-52" style="edgeStyle=orthogonalEdgeStyle;rounded=0;orthogonalLoop=1;jettySize=auto;html=1;exitX=0.5;exitY=1;exitDx=0;exitDy=0;entryX=0.5;entryY=0;entryDx=0;entryDy=0;entryPerimeter=0;" edge="1" parent="WIyWlLk6GJQsqaUBKTNV-1" source="l6OPGBZG9V-GJjDotJNE-49" target="l6OPGBZG9V-GJjDotJNE-51">
          <mxGeometry relative="1" as="geometry" />
        </mxCell>
        <mxCell id="l6OPGBZG9V-GJjDotJNE-55" value="&lt;span style=&quot;color: rgb(0, 0, 0); font-family: Helvetica; font-size: 12px; font-style: normal; font-variant-ligatures: normal; font-variant-caps: normal; font-weight: 400; letter-spacing: normal; orphans: 2; text-align: center; text-indent: 0px; text-transform: none; widows: 2; word-spacing: 0px; -webkit-text-stroke-width: 0px; background-color: rgb(251, 251, 251); text-decoration-thickness: initial; text-decoration-style: initial; text-decoration-color: initial; float: none; display: inline !important;&quot;&gt;キーワード設定&lt;/span&gt;" style="strokeWidth=2;html=1;shape=mxgraph.flowchart.start_2;whiteSpace=wrap;" vertex="1" parent="WIyWlLk6GJQsqaUBKTNV-1">
          <mxGeometry x="331" y="902" width="100" height="100" as="geometry" />
        </mxCell>
        <mxCell id="l6OPGBZG9V-GJjDotJNE-57" value="通知設定" style="strokeWidth=2;html=1;shape=mxgraph.flowchart.start_2;whiteSpace=wrap;" vertex="1" parent="WIyWlLk6GJQsqaUBKTNV-1">
          <mxGeometry x="173" y="902" width="100" height="100" as="geometry" />
        </mxCell>
        <mxCell id="l6OPGBZG9V-GJjDotJNE-61" style="edgeStyle=orthogonalEdgeStyle;rounded=0;orthogonalLoop=1;jettySize=auto;html=1;exitX=0.5;exitY=0;exitDx=0;exitDy=0;exitPerimeter=0;entryX=1;entryY=0.5;entryDx=0;entryDy=0;" edge="1" parent="WIyWlLk6GJQsqaUBKTNV-1" source="l6OPGBZG9V-GJjDotJNE-58" target="l6OPGBZG9V-GJjDotJNE-49">
          <mxGeometry relative="1" as="geometry" />
        </mxCell>
        <mxCell id="l6OPGBZG9V-GJjDotJNE-62" value="YES" style="edgeLabel;html=1;align=center;verticalAlign=middle;resizable=0;points=[];" vertex="1" connectable="0" parent="l6OPGBZG9V-GJjDotJNE-61">
          <mxGeometry x="-0.5514" y="3" relative="1" as="geometry">
            <mxPoint as="offset" />
          </mxGeometry>
        </mxCell>
        <mxCell id="l6OPGBZG9V-GJjDotJNE-58" value="再読み込みボタンを&lt;br&gt;クリック" style="strokeWidth=2;html=1;shape=mxgraph.flowchart.decision;whiteSpace=wrap;" vertex="1" parent="WIyWlLk6GJQsqaUBKTNV-1">
          <mxGeometry x="613" y="512" width="100" height="80" as="geometry" />
        </mxCell>
        <mxCell id="l6OPGBZG9V-GJjDotJNE-60" style="edgeStyle=orthogonalEdgeStyle;rounded=0;orthogonalLoop=1;jettySize=auto;html=1;exitX=1;exitY=0.5;exitDx=0;exitDy=0;entryX=0;entryY=0.5;entryDx=0;entryDy=0;entryPerimeter=0;" edge="1" parent="WIyWlLk6GJQsqaUBKTNV-1" source="l6OPGBZG9V-GJjDotJNE-26" target="l6OPGBZG9V-GJjDotJNE-58">
          <mxGeometry relative="1" as="geometry" />
        </mxCell>
        <mxCell id="l6OPGBZG9V-GJjDotJNE-63" value="&lt;span style=&quot;color: rgb(0, 0, 0); font-family: Helvetica; font-size: 12px; font-style: normal; font-variant-ligatures: normal; font-variant-caps: normal; font-weight: 400; letter-spacing: normal; orphans: 2; text-align: center; text-indent: 0px; text-transform: none; widows: 2; word-spacing: 0px; -webkit-text-stroke-width: 0px; background-color: rgb(251, 251, 251); text-decoration-thickness: initial; text-decoration-style: initial; text-decoration-color: initial; float: none; display: inline !important;&quot;&gt;メール表示機能&lt;/span&gt;" style="strokeWidth=2;html=1;shape=mxgraph.flowchart.start_2;whiteSpace=wrap;" vertex="1" parent="WIyWlLk6GJQsqaUBKTNV-1">
          <mxGeometry x="333" y="110" width="100" height="100" as="geometry" />
        </mxCell>
        <mxCell id="l6OPGBZG9V-GJjDotJNE-64" style="edgeStyle=orthogonalEdgeStyle;rounded=0;orthogonalLoop=1;jettySize=auto;html=1;exitX=0.5;exitY=1;exitDx=0;exitDy=0;exitPerimeter=0;entryX=0.5;entryY=0;entryDx=0;entryDy=0;entryPerimeter=0;" edge="1" parent="WIyWlLk6GJQsqaUBKTNV-1" source="l6OPGBZG9V-GJjDotJNE-15" target="l6OPGBZG9V-GJjDotJNE-63">
          <mxGeometry relative="1" as="geometry" />
        </mxCell>
        <mxCell id="l6OPGBZG9V-GJjDotJNE-65" style="edgeStyle=orthogonalEdgeStyle;rounded=0;orthogonalLoop=1;jettySize=auto;html=1;exitX=0.5;exitY=1;exitDx=0;exitDy=0;exitPerimeter=0;entryX=0.5;entryY=0;entryDx=0;entryDy=0;entryPerimeter=0;" edge="1" parent="WIyWlLk6GJQsqaUBKTNV-1" source="l6OPGBZG9V-GJjDotJNE-63" target="l6OPGBZG9V-GJjDotJNE-17">
          <mxGeometry relative="1" as="geometry" />
        </mxCell>
        <mxCell id="l6OPGBZG9V-GJjDotJNE-70" style="edgeStyle=orthogonalEdgeStyle;rounded=0;orthogonalLoop=1;jettySize=auto;html=1;exitX=0.5;exitY=0;exitDx=0;exitDy=0;exitPerimeter=0;entryX=0.5;entryY=1;entryDx=0;entryDy=0;" edge="1" parent="WIyWlLk6GJQsqaUBKTNV-1" source="l6OPGBZG9V-GJjDotJNE-66" target="l6OPGBZG9V-GJjDotJNE-21">
          <mxGeometry relative="1" as="geometry" />
        </mxCell>
        <mxCell id="l6OPGBZG9V-GJjDotJNE-74" value="YES" style="edgeLabel;html=1;align=center;verticalAlign=middle;resizable=0;points=[];" vertex="1" connectable="0" parent="l6OPGBZG9V-GJjDotJNE-70">
          <mxGeometry x="-0.5606" y="-4" relative="1" as="geometry">
            <mxPoint as="offset" />
          </mxGeometry>
        </mxCell>
        <mxCell id="l6OPGBZG9V-GJjDotJNE-66" value="アカウント変更&lt;br&gt;ボタンを&lt;br&gt;クリック" style="strokeWidth=2;html=1;shape=mxgraph.flowchart.decision;whiteSpace=wrap;" vertex="1" parent="WIyWlLk6GJQsqaUBKTNV-1">
          <mxGeometry x="20" y="512" width="100" height="80" as="geometry" />
        </mxCell>
        <mxCell id="l6OPGBZG9V-GJjDotJNE-73" style="edgeStyle=orthogonalEdgeStyle;rounded=0;orthogonalLoop=1;jettySize=auto;html=1;exitX=0;exitY=0.5;exitDx=0;exitDy=0;entryX=1;entryY=0.5;entryDx=0;entryDy=0;entryPerimeter=0;" edge="1" parent="WIyWlLk6GJQsqaUBKTNV-1" source="l6OPGBZG9V-GJjDotJNE-26" target="l6OPGBZG9V-GJjDotJNE-66">
          <mxGeometry relative="1" as="geometry" />
        </mxCell>
        <mxCell id="l6OPGBZG9V-GJjDotJNE-76" value="通知設定へ移動" style="strokeWidth=2;html=1;shape=mxgraph.flowchart.start_2;whiteSpace=wrap;" vertex="1" parent="WIyWlLk6GJQsqaUBKTNV-1">
          <mxGeometry x="870" y="110" width="100" height="100" as="geometry" />
        </mxCell>
        <mxCell id="l6OPGBZG9V-GJjDotJNE-83" style="edgeStyle=orthogonalEdgeStyle;rounded=0;orthogonalLoop=1;jettySize=auto;html=1;exitX=1;exitY=0.5;exitDx=0;exitDy=0;exitPerimeter=0;" edge="1" parent="WIyWlLk6GJQsqaUBKTNV-1" source="l6OPGBZG9V-GJjDotJNE-78" target="l6OPGBZG9V-GJjDotJNE-81">
          <mxGeometry relative="1" as="geometry" />
        </mxCell>
        <mxCell id="l6OPGBZG9V-GJjDotJNE-88" value="OFF" style="edgeLabel;html=1;align=center;verticalAlign=middle;resizable=0;points=[];" vertex="1" connectable="0" parent="l6OPGBZG9V-GJjDotJNE-83">
          <mxGeometry x="-0.1864" y="2" relative="1" as="geometry">
            <mxPoint as="offset" />
          </mxGeometry>
        </mxCell>
        <mxCell id="l6OPGBZG9V-GJjDotJNE-84" style="edgeStyle=orthogonalEdgeStyle;rounded=0;orthogonalLoop=1;jettySize=auto;html=1;exitX=0.5;exitY=1;exitDx=0;exitDy=0;exitPerimeter=0;" edge="1" parent="WIyWlLk6GJQsqaUBKTNV-1" source="l6OPGBZG9V-GJjDotJNE-78">
          <mxGeometry relative="1" as="geometry">
            <mxPoint x="920" y="445" as="targetPoint" />
          </mxGeometry>
        </mxCell>
        <mxCell id="l6OPGBZG9V-GJjDotJNE-87" value="ON" style="edgeLabel;html=1;align=center;verticalAlign=middle;resizable=0;points=[];" vertex="1" connectable="0" parent="l6OPGBZG9V-GJjDotJNE-84">
          <mxGeometry x="-0.1776" relative="1" as="geometry">
            <mxPoint as="offset" />
          </mxGeometry>
        </mxCell>
        <mxCell id="l6OPGBZG9V-GJjDotJNE-78" value="通知機能有効&lt;br&gt;ONOFF&lt;br&gt;ボタン" style="strokeWidth=2;html=1;shape=mxgraph.flowchart.decision;whiteSpace=wrap;" vertex="1" parent="WIyWlLk6GJQsqaUBKTNV-1">
          <mxGeometry x="870" y="292" width="100" height="100" as="geometry" />
        </mxCell>
        <mxCell id="l6OPGBZG9V-GJjDotJNE-80" style="edgeStyle=orthogonalEdgeStyle;rounded=0;orthogonalLoop=1;jettySize=auto;html=1;exitX=0.5;exitY=1;exitDx=0;exitDy=0;exitPerimeter=0;entryX=0.5;entryY=0;entryDx=0;entryDy=0;entryPerimeter=0;" edge="1" parent="WIyWlLk6GJQsqaUBKTNV-1" source="l6OPGBZG9V-GJjDotJNE-76" target="l6OPGBZG9V-GJjDotJNE-78">
          <mxGeometry relative="1" as="geometry" />
        </mxCell>
        <mxCell id="l6OPGBZG9V-GJjDotJNE-81" value="通知機能を無効化" style="rounded=1;whiteSpace=wrap;html=1;absoluteArcSize=1;arcSize=14;strokeWidth=2;" vertex="1" parent="WIyWlLk6GJQsqaUBKTNV-1">
          <mxGeometry x="1029" y="317" width="100" height="50" as="geometry" />
        </mxCell>
        <mxCell id="l6OPGBZG9V-GJjDotJNE-82" value="通知機能を有効化" style="rounded=1;whiteSpace=wrap;html=1;absoluteArcSize=1;arcSize=14;strokeWidth=2;" vertex="1" parent="WIyWlLk6GJQsqaUBKTNV-1">
          <mxGeometry x="870" y="447" width="100" height="50" as="geometry" />
        </mxCell>
        <mxCell id="l6OPGBZG9V-GJjDotJNE-89" value="&lt;span style=&quot;color: rgb(0, 0, 0); font-family: Helvetica; font-size: 12px; font-style: normal; font-variant-ligatures: normal; font-variant-caps: normal; font-weight: 400; letter-spacing: normal; orphans: 2; text-align: center; text-indent: 0px; text-transform: none; widows: 2; word-spacing: 0px; -webkit-text-stroke-width: 0px; background-color: rgb(251, 251, 251); text-decoration-thickness: initial; text-decoration-style: initial; text-decoration-color: initial; float: none; display: inline !important;&quot;&gt;メール表示機能&lt;/span&gt;" style="strokeWidth=2;html=1;shape=mxgraph.flowchart.start_2;whiteSpace=wrap;" vertex="1" parent="WIyWlLk6GJQsqaUBKTNV-1">
          <mxGeometry x="870" y="617" width="100" height="100" as="geometry" />
        </mxCell>
        <mxCell id="l6OPGBZG9V-GJjDotJNE-90" style="edgeStyle=orthogonalEdgeStyle;rounded=0;orthogonalLoop=1;jettySize=auto;html=1;exitX=0.5;exitY=1;exitDx=0;exitDy=0;entryX=0.5;entryY=0;entryDx=0;entryDy=0;entryPerimeter=0;" edge="1" parent="WIyWlLk6GJQsqaUBKTNV-1" source="l6OPGBZG9V-GJjDotJNE-82" target="l6OPGBZG9V-GJjDotJNE-89">
          <mxGeometry relative="1" as="geometry" />
        </mxCell>
        <mxCell id="l6OPGBZG9V-GJjDotJNE-92" style="edgeStyle=orthogonalEdgeStyle;rounded=0;orthogonalLoop=1;jettySize=auto;html=1;exitX=0.5;exitY=1;exitDx=0;exitDy=0;entryX=1;entryY=0.5;entryDx=0;entryDy=0;entryPerimeter=0;" edge="1" parent="WIyWlLk6GJQsqaUBKTNV-1" source="l6OPGBZG9V-GJjDotJNE-81" target="l6OPGBZG9V-GJjDotJNE-89">
          <mxGeometry relative="1" as="geometry" />
        </mxCell>
        <mxCell id="l6OPGBZG9V-GJjDotJNE-93" value="&lt;span style=&quot;color: rgb(0, 0, 0); font-family: Helvetica; font-size: 12px; font-style: normal; font-variant-ligatures: normal; font-variant-caps: normal; font-weight: 400; letter-spacing: normal; orphans: 2; text-align: center; text-indent: 0px; text-transform: none; widows: 2; word-spacing: 0px; -webkit-text-stroke-width: 0px; background-color: rgb(251, 251, 251); text-decoration-thickness: initial; text-decoration-style: initial; text-decoration-color: initial; float: none; display: inline !important;&quot;&gt;キーワード設定&lt;/span&gt;" style="strokeWidth=2;html=1;shape=mxgraph.flowchart.start_2;whiteSpace=wrap;" vertex="1" parent="WIyWlLk6GJQsqaUBKTNV-1">
          <mxGeometry x="1385" y="110" width="100" height="100" as="geometry" />
        </mxCell>
        <mxCell id="l6OPGBZG9V-GJjDotJNE-97" style="edgeStyle=orthogonalEdgeStyle;rounded=0;orthogonalLoop=1;jettySize=auto;html=1;exitX=0.5;exitY=1;exitDx=0;exitDy=0;exitPerimeter=0;entryX=0.5;entryY=0;entryDx=0;entryDy=0;" edge="1" parent="WIyWlLk6GJQsqaUBKTNV-1" source="l6OPGBZG9V-GJjDotJNE-94" target="l6OPGBZG9V-GJjDotJNE-96">
          <mxGeometry relative="1" as="geometry" />
        </mxCell>
        <mxCell id="l6OPGBZG9V-GJjDotJNE-94" value="キーワードに&lt;br&gt;アクセス" style="strokeWidth=2;html=1;shape=mxgraph.flowchart.database;whiteSpace=wrap;" vertex="1" parent="WIyWlLk6GJQsqaUBKTNV-1">
          <mxGeometry x="1380" y="287" width="110" height="60" as="geometry" />
        </mxCell>
        <mxCell id="l6OPGBZG9V-GJjDotJNE-95" style="edgeStyle=orthogonalEdgeStyle;rounded=0;orthogonalLoop=1;jettySize=auto;html=1;exitX=0.5;exitY=1;exitDx=0;exitDy=0;exitPerimeter=0;entryX=0.5;entryY=0;entryDx=0;entryDy=0;entryPerimeter=0;" edge="1" parent="WIyWlLk6GJQsqaUBKTNV-1" source="l6OPGBZG9V-GJjDotJNE-93" target="l6OPGBZG9V-GJjDotJNE-94">
          <mxGeometry relative="1" as="geometry" />
        </mxCell>
        <mxCell id="l6OPGBZG9V-GJjDotJNE-96" value="現在のキーワードを表示" style="rounded=1;whiteSpace=wrap;html=1;absoluteArcSize=1;arcSize=14;strokeWidth=2;" vertex="1" parent="WIyWlLk6GJQsqaUBKTNV-1">
          <mxGeometry x="1385" y="420" width="100" height="50" as="geometry" />
        </mxCell>
        <mxCell id="l6OPGBZG9V-GJjDotJNE-98" value="削除ボタンを&lt;br&gt;クリック" style="strokeWidth=2;html=1;shape=mxgraph.flowchart.decision;whiteSpace=wrap;" vertex="1" parent="WIyWlLk6GJQsqaUBKTNV-1">
          <mxGeometry x="1535" y="512" width="100" height="100" as="geometry" />
        </mxCell>
        <mxCell id="l6OPGBZG9V-GJjDotJNE-101" style="edgeStyle=orthogonalEdgeStyle;rounded=0;orthogonalLoop=1;jettySize=auto;html=1;exitX=0.5;exitY=1;exitDx=0;exitDy=0;exitPerimeter=0;" edge="1" parent="WIyWlLk6GJQsqaUBKTNV-1" source="l6OPGBZG9V-GJjDotJNE-98" target="l6OPGBZG9V-GJjDotJNE-114">
          <mxGeometry relative="1" as="geometry">
            <mxPoint x="1585" y="660" as="targetPoint" />
          </mxGeometry>
        </mxCell>
        <mxCell id="l6OPGBZG9V-GJjDotJNE-105" style="edgeStyle=orthogonalEdgeStyle;rounded=0;orthogonalLoop=1;jettySize=auto;html=1;exitX=0.5;exitY=1;exitDx=0;exitDy=0;exitPerimeter=0;entryX=0.5;entryY=0;entryDx=0;entryDy=0;" edge="1" parent="WIyWlLk6GJQsqaUBKTNV-1" source="l6OPGBZG9V-GJjDotJNE-103" target="l6OPGBZG9V-GJjDotJNE-104">
          <mxGeometry relative="1" as="geometry" />
        </mxCell>
        <mxCell id="l6OPGBZG9V-GJjDotJNE-103" value="追加ボタンを&lt;br&gt;クリック" style="strokeWidth=2;html=1;shape=mxgraph.flowchart.decision;whiteSpace=wrap;" vertex="1" parent="WIyWlLk6GJQsqaUBKTNV-1">
          <mxGeometry x="1385" y="517" width="100" height="100" as="geometry" />
        </mxCell>
        <mxCell id="l6OPGBZG9V-GJjDotJNE-104" value="キーワード入力画面を表示" style="rounded=1;whiteSpace=wrap;html=1;absoluteArcSize=1;arcSize=14;strokeWidth=2;" vertex="1" parent="WIyWlLk6GJQsqaUBKTNV-1">
          <mxGeometry x="1385" y="677" width="100" height="40" as="geometry" />
        </mxCell>
        <mxCell id="l6OPGBZG9V-GJjDotJNE-108" style="edgeStyle=orthogonalEdgeStyle;rounded=0;orthogonalLoop=1;jettySize=auto;html=1;exitX=0.5;exitY=1;exitDx=0;exitDy=0;exitPerimeter=0;" edge="1" parent="WIyWlLk6GJQsqaUBKTNV-1" source="l6OPGBZG9V-GJjDotJNE-106">
          <mxGeometry relative="1" as="geometry">
            <mxPoint x="1435" y="930" as="targetPoint" />
          </mxGeometry>
        </mxCell>
        <mxCell id="l6OPGBZG9V-GJjDotJNE-110" value="YES" style="edgeLabel;html=1;align=center;verticalAlign=middle;resizable=0;points=[];" vertex="1" connectable="0" parent="l6OPGBZG9V-GJjDotJNE-108">
          <mxGeometry x="-0.2067" y="-3" relative="1" as="geometry">
            <mxPoint as="offset" />
          </mxGeometry>
        </mxCell>
        <mxCell id="l6OPGBZG9V-GJjDotJNE-106" value="決定をクリック" style="strokeWidth=2;html=1;shape=mxgraph.flowchart.decision;whiteSpace=wrap;" vertex="1" parent="WIyWlLk6GJQsqaUBKTNV-1">
          <mxGeometry x="1385" y="770" width="100" height="100" as="geometry" />
        </mxCell>
        <mxCell id="l6OPGBZG9V-GJjDotJNE-107" style="edgeStyle=orthogonalEdgeStyle;rounded=0;orthogonalLoop=1;jettySize=auto;html=1;exitX=0.5;exitY=1;exitDx=0;exitDy=0;entryX=0.5;entryY=0;entryDx=0;entryDy=0;entryPerimeter=0;" edge="1" parent="WIyWlLk6GJQsqaUBKTNV-1" source="l6OPGBZG9V-GJjDotJNE-104" target="l6OPGBZG9V-GJjDotJNE-106">
          <mxGeometry relative="1" as="geometry" />
        </mxCell>
        <mxCell id="l6OPGBZG9V-GJjDotJNE-142" style="edgeStyle=orthogonalEdgeStyle;rounded=0;orthogonalLoop=1;jettySize=auto;html=1;exitX=0.5;exitY=1;exitDx=0;exitDy=0;" edge="1" parent="WIyWlLk6GJQsqaUBKTNV-1">
          <mxGeometry relative="1" as="geometry">
            <mxPoint x="1435" y="1280" as="targetPoint" />
            <mxPoint x="1435" y="972" as="sourcePoint" />
          </mxGeometry>
        </mxCell>
        <mxCell id="l6OPGBZG9V-GJjDotJNE-113" value="キーワードにチェックマークがある" style="strokeWidth=2;html=1;shape=mxgraph.flowchart.decision;whiteSpace=wrap;" vertex="1" parent="WIyWlLk6GJQsqaUBKTNV-1">
          <mxGeometry x="1535" y="770" width="100" height="100" as="geometry" />
        </mxCell>
        <mxCell id="l6OPGBZG9V-GJjDotJNE-114" value="キーワードごとにチェックマークの表示" style="rounded=1;whiteSpace=wrap;html=1;absoluteArcSize=1;arcSize=14;strokeWidth=2;" vertex="1" parent="WIyWlLk6GJQsqaUBKTNV-1">
          <mxGeometry x="1535" y="677" width="100" height="40" as="geometry" />
        </mxCell>
        <mxCell id="l6OPGBZG9V-GJjDotJNE-115" style="edgeStyle=orthogonalEdgeStyle;rounded=0;orthogonalLoop=1;jettySize=auto;html=1;exitX=0.5;exitY=1;exitDx=0;exitDy=0;entryX=0.5;entryY=0;entryDx=0;entryDy=0;entryPerimeter=0;" edge="1" parent="WIyWlLk6GJQsqaUBKTNV-1" source="l6OPGBZG9V-GJjDotJNE-114" target="l6OPGBZG9V-GJjDotJNE-113">
          <mxGeometry relative="1" as="geometry" />
        </mxCell>
        <mxCell id="l6OPGBZG9V-GJjDotJNE-119" style="edgeStyle=orthogonalEdgeStyle;rounded=0;orthogonalLoop=1;jettySize=auto;html=1;exitX=0.5;exitY=1;exitDx=0;exitDy=0;exitPerimeter=0;" edge="1" parent="WIyWlLk6GJQsqaUBKTNV-1" source="l6OPGBZG9V-GJjDotJNE-117">
          <mxGeometry relative="1" as="geometry">
            <mxPoint x="1585" y="1040" as="targetPoint" />
          </mxGeometry>
        </mxCell>
        <mxCell id="l6OPGBZG9V-GJjDotJNE-117" value="決定ボタンを&lt;br&gt;クリック" style="strokeWidth=2;html=1;shape=mxgraph.flowchart.decision;whiteSpace=wrap;" vertex="1" parent="WIyWlLk6GJQsqaUBKTNV-1">
          <mxGeometry x="1535" y="902" width="100" height="100" as="geometry" />
        </mxCell>
        <mxCell id="l6OPGBZG9V-GJjDotJNE-118" style="edgeStyle=orthogonalEdgeStyle;rounded=0;orthogonalLoop=1;jettySize=auto;html=1;exitX=0.5;exitY=1;exitDx=0;exitDy=0;exitPerimeter=0;entryX=0.5;entryY=0;entryDx=0;entryDy=0;entryPerimeter=0;" edge="1" parent="WIyWlLk6GJQsqaUBKTNV-1" source="l6OPGBZG9V-GJjDotJNE-113" target="l6OPGBZG9V-GJjDotJNE-117">
          <mxGeometry relative="1" as="geometry" />
        </mxCell>
        <mxCell id="l6OPGBZG9V-GJjDotJNE-120" value="キャンセルボタンをクリック" style="strokeWidth=2;html=1;shape=mxgraph.flowchart.decision;whiteSpace=wrap;" vertex="1" parent="WIyWlLk6GJQsqaUBKTNV-1">
          <mxGeometry x="1715" y="770" width="100" height="100" as="geometry" />
        </mxCell>
        <mxCell id="l6OPGBZG9V-GJjDotJNE-123" value="&lt;span style=&quot;color: rgb(0, 0, 0); font-family: Helvetica; font-size: 12px; font-style: normal; font-variant-ligatures: normal; font-variant-caps: normal; font-weight: 400; letter-spacing: normal; orphans: 2; text-align: center; text-indent: 0px; text-transform: none; widows: 2; word-spacing: 0px; -webkit-text-stroke-width: 0px; background-color: rgb(251, 251, 251); text-decoration-thickness: initial; text-decoration-style: initial; text-decoration-color: initial; float: none; display: inline !important;&quot;&gt;キーワード設定&lt;/span&gt;" style="strokeWidth=2;html=1;shape=mxgraph.flowchart.start_2;whiteSpace=wrap;" vertex="1" parent="WIyWlLk6GJQsqaUBKTNV-1">
          <mxGeometry x="1715" y="983" width="100" height="100" as="geometry" />
        </mxCell>
        <mxCell id="l6OPGBZG9V-GJjDotJNE-124" style="edgeStyle=orthogonalEdgeStyle;rounded=0;orthogonalLoop=1;jettySize=auto;html=1;exitX=0.5;exitY=1;exitDx=0;exitDy=0;exitPerimeter=0;entryX=0.5;entryY=0;entryDx=0;entryDy=0;entryPerimeter=0;" edge="1" parent="WIyWlLk6GJQsqaUBKTNV-1" source="l6OPGBZG9V-GJjDotJNE-120" target="l6OPGBZG9V-GJjDotJNE-123">
          <mxGeometry relative="1" as="geometry" />
        </mxCell>
        <mxCell id="l6OPGBZG9V-GJjDotJNE-125" value="&lt;span style=&quot;color: rgb(0, 0, 0); font-family: Helvetica; font-size: 12px; font-style: normal; font-variant-ligatures: normal; font-variant-caps: normal; font-weight: 400; letter-spacing: normal; orphans: 2; text-align: center; text-indent: 0px; text-transform: none; widows: 2; word-spacing: 0px; -webkit-text-stroke-width: 0px; background-color: rgb(251, 251, 251); text-decoration-thickness: initial; text-decoration-style: initial; text-decoration-color: initial; float: none; display: inline !important;&quot;&gt;キーワード設定&lt;/span&gt;" style="strokeWidth=2;html=1;shape=mxgraph.flowchart.start_2;whiteSpace=wrap;" vertex="1" parent="WIyWlLk6GJQsqaUBKTNV-1">
          <mxGeometry x="1385" y="1280" width="100" height="100" as="geometry" />
        </mxCell>
        <mxCell id="l6OPGBZG9V-GJjDotJNE-126" style="edgeStyle=orthogonalEdgeStyle;rounded=0;orthogonalLoop=1;jettySize=auto;html=1;exitX=0.5;exitY=1;exitDx=0;exitDy=0;exitPerimeter=0;entryX=0.5;entryY=0;entryDx=0;entryDy=0;" edge="1" parent="WIyWlLk6GJQsqaUBKTNV-1" source="l6OPGBZG9V-GJjDotJNE-127" target="l6OPGBZG9V-GJjDotJNE-128">
          <mxGeometry relative="1" as="geometry" />
        </mxCell>
        <mxCell id="l6OPGBZG9V-GJjDotJNE-127" value="変更ボタンを&lt;br&gt;クリック" style="strokeWidth=2;html=1;shape=mxgraph.flowchart.decision;whiteSpace=wrap;" vertex="1" parent="WIyWlLk6GJQsqaUBKTNV-1">
          <mxGeometry x="1240" y="517" width="100" height="100" as="geometry" />
        </mxCell>
        <mxCell id="l6OPGBZG9V-GJjDotJNE-128" value="変更モード中を表示" style="rounded=1;whiteSpace=wrap;html=1;absoluteArcSize=1;arcSize=14;strokeWidth=2;" vertex="1" parent="WIyWlLk6GJQsqaUBKTNV-1">
          <mxGeometry x="1240" y="677" width="100" height="40" as="geometry" />
        </mxCell>
        <mxCell id="l6OPGBZG9V-GJjDotJNE-129" style="edgeStyle=orthogonalEdgeStyle;rounded=0;orthogonalLoop=1;jettySize=auto;html=1;exitX=0.5;exitY=1;exitDx=0;exitDy=0;exitPerimeter=0;" edge="1" parent="WIyWlLk6GJQsqaUBKTNV-1" source="l6OPGBZG9V-GJjDotJNE-131">
          <mxGeometry relative="1" as="geometry">
            <mxPoint x="1290" y="930" as="targetPoint" />
          </mxGeometry>
        </mxCell>
        <mxCell id="l6OPGBZG9V-GJjDotJNE-130" value="YES" style="edgeLabel;html=1;align=center;verticalAlign=middle;resizable=0;points=[];" vertex="1" connectable="0" parent="l6OPGBZG9V-GJjDotJNE-129">
          <mxGeometry x="-0.2067" y="-3" relative="1" as="geometry">
            <mxPoint as="offset" />
          </mxGeometry>
        </mxCell>
        <mxCell id="l6OPGBZG9V-GJjDotJNE-131" value="キーワードをクリック" style="strokeWidth=2;html=1;shape=mxgraph.flowchart.decision;whiteSpace=wrap;" vertex="1" parent="WIyWlLk6GJQsqaUBKTNV-1">
          <mxGeometry x="1240" y="770" width="100" height="100" as="geometry" />
        </mxCell>
        <mxCell id="l6OPGBZG9V-GJjDotJNE-132" style="edgeStyle=orthogonalEdgeStyle;rounded=0;orthogonalLoop=1;jettySize=auto;html=1;exitX=0.5;exitY=1;exitDx=0;exitDy=0;entryX=0.5;entryY=0;entryDx=0;entryDy=0;entryPerimeter=0;" edge="1" parent="WIyWlLk6GJQsqaUBKTNV-1" source="l6OPGBZG9V-GJjDotJNE-128" target="l6OPGBZG9V-GJjDotJNE-131">
          <mxGeometry relative="1" as="geometry" />
        </mxCell>
        <mxCell id="l6OPGBZG9V-GJjDotJNE-133" value="入力ボックスを表示" style="rounded=1;whiteSpace=wrap;html=1;absoluteArcSize=1;arcSize=14;strokeWidth=2;" vertex="1" parent="WIyWlLk6GJQsqaUBKTNV-1">
          <mxGeometry x="1240" y="932" width="100" height="40" as="geometry" />
        </mxCell>
        <mxCell id="l6OPGBZG9V-GJjDotJNE-134" style="edgeStyle=orthogonalEdgeStyle;rounded=0;orthogonalLoop=1;jettySize=auto;html=1;exitX=0.5;exitY=1;exitDx=0;exitDy=0;exitPerimeter=0;entryX=0.5;entryY=0;entryDx=0;entryDy=0;entryPerimeter=0;" edge="1" parent="WIyWlLk6GJQsqaUBKTNV-1" source="l6OPGBZG9V-GJjDotJNE-136" target="l6OPGBZG9V-GJjDotJNE-161">
          <mxGeometry relative="1" as="geometry">
            <mxPoint x="1270" y="1190" as="targetPoint" />
          </mxGeometry>
        </mxCell>
        <mxCell id="l6OPGBZG9V-GJjDotJNE-135" value="YES" style="edgeLabel;html=1;align=center;verticalAlign=middle;resizable=0;points=[];" vertex="1" connectable="0" parent="l6OPGBZG9V-GJjDotJNE-134">
          <mxGeometry x="-0.2067" y="-3" relative="1" as="geometry">
            <mxPoint as="offset" />
          </mxGeometry>
        </mxCell>
        <mxCell id="l6OPGBZG9V-GJjDotJNE-136" value="決定をクリック" style="strokeWidth=2;html=1;shape=mxgraph.flowchart.decision;whiteSpace=wrap;" vertex="1" parent="WIyWlLk6GJQsqaUBKTNV-1">
          <mxGeometry x="1240" y="1020" width="100" height="100" as="geometry" />
        </mxCell>
        <mxCell id="l6OPGBZG9V-GJjDotJNE-138" style="edgeStyle=orthogonalEdgeStyle;rounded=0;orthogonalLoop=1;jettySize=auto;html=1;exitX=0.5;exitY=1;exitDx=0;exitDy=0;entryX=0.5;entryY=0;entryDx=0;entryDy=0;entryPerimeter=0;" edge="1" parent="WIyWlLk6GJQsqaUBKTNV-1" source="l6OPGBZG9V-GJjDotJNE-133" target="l6OPGBZG9V-GJjDotJNE-136">
          <mxGeometry relative="1" as="geometry" />
        </mxCell>
        <mxCell id="l6OPGBZG9V-GJjDotJNE-141" style="edgeStyle=orthogonalEdgeStyle;rounded=0;orthogonalLoop=1;jettySize=auto;html=1;exitX=0.5;exitY=1;exitDx=0;exitDy=0;entryX=0.5;entryY=0;entryDx=0;entryDy=0;entryPerimeter=0;" edge="1" parent="WIyWlLk6GJQsqaUBKTNV-1" target="l6OPGBZG9V-GJjDotJNE-125">
          <mxGeometry relative="1" as="geometry">
            <mxPoint x="1290" y="1222" as="sourcePoint" />
            <Array as="points">
              <mxPoint x="1290" y="1250" />
              <mxPoint x="1435" y="1250" />
            </Array>
          </mxGeometry>
        </mxCell>
        <mxCell id="l6OPGBZG9V-GJjDotJNE-143" style="edgeStyle=orthogonalEdgeStyle;rounded=0;orthogonalLoop=1;jettySize=auto;html=1;exitX=0.5;exitY=1;exitDx=0;exitDy=0;entryX=0.5;entryY=0;entryDx=0;entryDy=0;entryPerimeter=0;" edge="1" parent="WIyWlLk6GJQsqaUBKTNV-1" target="l6OPGBZG9V-GJjDotJNE-125">
          <mxGeometry relative="1" as="geometry">
            <mxPoint x="1585" y="1080" as="sourcePoint" />
            <Array as="points">
              <mxPoint x="1585" y="1250" />
              <mxPoint x="1435" y="1250" />
            </Array>
          </mxGeometry>
        </mxCell>
        <mxCell id="l6OPGBZG9V-GJjDotJNE-144" style="edgeStyle=orthogonalEdgeStyle;rounded=0;orthogonalLoop=1;jettySize=auto;html=1;exitX=0.5;exitY=1;exitDx=0;exitDy=0;entryX=0.5;entryY=0;entryDx=0;entryDy=0;entryPerimeter=0;" edge="1" parent="WIyWlLk6GJQsqaUBKTNV-1" source="l6OPGBZG9V-GJjDotJNE-96" target="l6OPGBZG9V-GJjDotJNE-103">
          <mxGeometry relative="1" as="geometry" />
        </mxCell>
        <mxCell id="l6OPGBZG9V-GJjDotJNE-145" style="edgeStyle=orthogonalEdgeStyle;rounded=0;orthogonalLoop=1;jettySize=auto;html=1;exitX=0.75;exitY=1;exitDx=0;exitDy=0;entryX=0.5;entryY=0;entryDx=0;entryDy=0;entryPerimeter=0;" edge="1" parent="WIyWlLk6GJQsqaUBKTNV-1" source="l6OPGBZG9V-GJjDotJNE-96" target="l6OPGBZG9V-GJjDotJNE-98">
          <mxGeometry relative="1" as="geometry" />
        </mxCell>
        <mxCell id="l6OPGBZG9V-GJjDotJNE-146" style="edgeStyle=orthogonalEdgeStyle;rounded=0;orthogonalLoop=1;jettySize=auto;html=1;exitX=0.25;exitY=1;exitDx=0;exitDy=0;entryX=0.5;entryY=0;entryDx=0;entryDy=0;entryPerimeter=0;" edge="1" parent="WIyWlLk6GJQsqaUBKTNV-1" source="l6OPGBZG9V-GJjDotJNE-96" target="l6OPGBZG9V-GJjDotJNE-127">
          <mxGeometry relative="1" as="geometry" />
        </mxCell>
        <mxCell id="l6OPGBZG9V-GJjDotJNE-149" style="edgeStyle=orthogonalEdgeStyle;rounded=0;orthogonalLoop=1;jettySize=auto;html=1;exitX=0.5;exitY=1;exitDx=0;exitDy=0;exitPerimeter=0;" edge="1" parent="WIyWlLk6GJQsqaUBKTNV-1" source="l6OPGBZG9V-GJjDotJNE-147">
          <mxGeometry relative="1" as="geometry">
            <mxPoint x="1930" y="910" as="targetPoint" />
          </mxGeometry>
        </mxCell>
        <mxCell id="l6OPGBZG9V-GJjDotJNE-147" value="メール一覧へ&lt;br&gt;ボタンを&lt;br&gt;クリック" style="strokeWidth=2;html=1;shape=mxgraph.flowchart.decision;whiteSpace=wrap;" vertex="1" parent="WIyWlLk6GJQsqaUBKTNV-1">
          <mxGeometry x="1880" y="697" width="100" height="100" as="geometry" />
        </mxCell>
        <mxCell id="l6OPGBZG9V-GJjDotJNE-148" style="edgeStyle=orthogonalEdgeStyle;rounded=0;orthogonalLoop=1;jettySize=auto;html=1;exitX=1;exitY=0.5;exitDx=0;exitDy=0;entryX=0.5;entryY=0;entryDx=0;entryDy=0;entryPerimeter=0;" edge="1" parent="WIyWlLk6GJQsqaUBKTNV-1" source="l6OPGBZG9V-GJjDotJNE-96" target="l6OPGBZG9V-GJjDotJNE-147">
          <mxGeometry relative="1" as="geometry" />
        </mxCell>
        <mxCell id="l6OPGBZG9V-GJjDotJNE-150" value="&lt;span style=&quot;color: rgb(0, 0, 0); font-family: Helvetica; font-size: 12px; font-style: normal; font-variant-ligatures: normal; font-variant-caps: normal; font-weight: 400; letter-spacing: normal; orphans: 2; text-align: center; text-indent: 0px; text-transform: none; widows: 2; word-spacing: 0px; -webkit-text-stroke-width: 0px; background-color: rgb(251, 251, 251); text-decoration-thickness: initial; text-decoration-style: initial; text-decoration-color: initial; float: none; display: inline !important;&quot;&gt;メール表示機能&lt;/span&gt;" style="strokeWidth=2;html=1;shape=mxgraph.flowchart.start_2;whiteSpace=wrap;" vertex="1" parent="WIyWlLk6GJQsqaUBKTNV-1">
          <mxGeometry x="1880" y="910" width="100" height="100" as="geometry" />
        </mxCell>
        <mxCell id="l6OPGBZG9V-GJjDotJNE-152" value="該当メールのタイトルから&lt;br&gt;内容を取得" style="rounded=1;whiteSpace=wrap;html=1;absoluteArcSize=1;arcSize=14;strokeWidth=2;" vertex="1" parent="WIyWlLk6GJQsqaUBKTNV-1">
          <mxGeometry x="500" y="927" width="150" height="50" as="geometry" />
        </mxCell>
        <mxCell id="l6OPGBZG9V-GJjDotJNE-155" style="edgeStyle=orthogonalEdgeStyle;rounded=0;orthogonalLoop=1;jettySize=auto;html=1;exitX=0.5;exitY=1;exitDx=0;exitDy=0;exitPerimeter=0;" edge="1" parent="WIyWlLk6GJQsqaUBKTNV-1" source="l6OPGBZG9V-GJjDotJNE-153">
          <mxGeometry relative="1" as="geometry">
            <mxPoint x="574.8421052631579" y="1320" as="targetPoint" />
          </mxGeometry>
        </mxCell>
        <mxCell id="l6OPGBZG9V-GJjDotJNE-156" value="YES" style="edgeLabel;html=1;align=center;verticalAlign=middle;resizable=0;points=[];" vertex="1" connectable="0" parent="l6OPGBZG9V-GJjDotJNE-155">
          <mxGeometry x="-0.1729" y="3" relative="1" as="geometry">
            <mxPoint as="offset" />
          </mxGeometry>
        </mxCell>
        <mxCell id="l6OPGBZG9V-GJjDotJNE-153" value="メール一覧へ&lt;br&gt;クリック" style="strokeWidth=2;html=1;shape=mxgraph.flowchart.decision;whiteSpace=wrap;" vertex="1" parent="WIyWlLk6GJQsqaUBKTNV-1">
          <mxGeometry x="525" y="1180" width="100" height="80" as="geometry" />
        </mxCell>
        <mxCell id="l6OPGBZG9V-GJjDotJNE-154" style="edgeStyle=orthogonalEdgeStyle;rounded=0;orthogonalLoop=1;jettySize=auto;html=1;exitX=0.5;exitY=1;exitDx=0;exitDy=0;" edge="1" parent="WIyWlLk6GJQsqaUBKTNV-1" source="l6OPGBZG9V-GJjDotJNE-152">
          <mxGeometry relative="1" as="geometry">
            <mxPoint x="575" y="1050" as="targetPoint" />
          </mxGeometry>
        </mxCell>
        <mxCell id="l6OPGBZG9V-GJjDotJNE-157" value="&lt;span style=&quot;color: rgb(0, 0, 0); font-family: Helvetica; font-size: 12px; font-style: normal; font-variant-ligatures: normal; font-variant-caps: normal; font-weight: 400; letter-spacing: normal; orphans: 2; text-align: center; text-indent: 0px; text-transform: none; widows: 2; word-spacing: 0px; -webkit-text-stroke-width: 0px; background-color: rgb(251, 251, 251); text-decoration-thickness: initial; text-decoration-style: initial; text-decoration-color: initial; float: none; display: inline !important;&quot;&gt;メール表示機能&lt;/span&gt;" style="strokeWidth=2;html=1;shape=mxgraph.flowchart.start_2;whiteSpace=wrap;" vertex="1" parent="WIyWlLk6GJQsqaUBKTNV-1">
          <mxGeometry x="525" y="1322" width="100" height="100" as="geometry" />
        </mxCell>
        <mxCell id="l6OPGBZG9V-GJjDotJNE-158" style="edgeStyle=orthogonalEdgeStyle;rounded=0;orthogonalLoop=1;jettySize=auto;html=1;exitX=0.5;exitY=0;exitDx=0;exitDy=0;entryX=0;entryY=0.5;entryDx=0;entryDy=0;entryPerimeter=0;" edge="1" parent="WIyWlLk6GJQsqaUBKTNV-1" source="l6OPGBZG9V-GJjDotJNE-21" target="l6OPGBZG9V-GJjDotJNE-63">
          <mxGeometry relative="1" as="geometry" />
        </mxCell>
        <mxCell id="l6OPGBZG9V-GJjDotJNE-159" value="キーワードを削除" style="strokeWidth=2;html=1;shape=mxgraph.flowchart.database;whiteSpace=wrap;" vertex="1" parent="WIyWlLk6GJQsqaUBKTNV-1">
          <mxGeometry x="1530" y="1040" width="110" height="60" as="geometry" />
        </mxCell>
        <mxCell id="l6OPGBZG9V-GJjDotJNE-160" value="キーワードを追加" style="strokeWidth=2;html=1;shape=mxgraph.flowchart.database;whiteSpace=wrap;" vertex="1" parent="WIyWlLk6GJQsqaUBKTNV-1">
          <mxGeometry x="1380" y="932" width="110" height="60" as="geometry" />
        </mxCell>
        <mxCell id="l6OPGBZG9V-GJjDotJNE-161" value="キーワードを変更" style="strokeWidth=2;html=1;shape=mxgraph.flowchart.database;whiteSpace=wrap;" vertex="1" parent="WIyWlLk6GJQsqaUBKTNV-1">
          <mxGeometry x="1235" y="1169" width="110" height="60" as="geometry" />
        </mxCell>
        <mxCell id="l6OPGBZG9V-GJjDotJNE-163" style="edgeStyle=orthogonalEdgeStyle;rounded=0;orthogonalLoop=1;jettySize=auto;html=1;exitX=0.75;exitY=1;exitDx=0;exitDy=0;entryX=0.5;entryY=0;entryDx=0;entryDy=0;entryPerimeter=0;" edge="1" parent="WIyWlLk6GJQsqaUBKTNV-1" source="l6OPGBZG9V-GJjDotJNE-114" target="l6OPGBZG9V-GJjDotJNE-120">
          <mxGeometry relative="1" as="geometry" />
        </mxCell>
        <mxCell id="l6OPGBZG9V-GJjDotJNE-164" style="edgeStyle=orthogonalEdgeStyle;rounded=0;orthogonalLoop=1;jettySize=auto;html=1;exitX=0.75;exitY=1;exitDx=0;exitDy=0;entryX=0.5;entryY=0;entryDx=0;entryDy=0;entryPerimeter=0;" edge="1" parent="WIyWlLk6GJQsqaUBKTNV-1" source="l6OPGBZG9V-GJjDotJNE-104" target="l6OPGBZG9V-GJjDotJNE-120">
          <mxGeometry relative="1" as="geometry" />
        </mxCell>
        <mxCell id="l6OPGBZG9V-GJjDotJNE-165" style="edgeStyle=orthogonalEdgeStyle;rounded=0;orthogonalLoop=1;jettySize=auto;html=1;exitX=0.75;exitY=1;exitDx=0;exitDy=0;entryX=0.5;entryY=0;entryDx=0;entryDy=0;entryPerimeter=0;" edge="1" parent="WIyWlLk6GJQsqaUBKTNV-1" source="l6OPGBZG9V-GJjDotJNE-128" target="l6OPGBZG9V-GJjDotJNE-120">
          <mxGeometry relative="1" as="geometry" />
        </mxCell>
        <mxCell id="l6OPGBZG9V-GJjDotJNE-166" value="内容を表示" style="rounded=1;whiteSpace=wrap;html=1;absoluteArcSize=1;arcSize=14;strokeWidth=2;" vertex="1" parent="WIyWlLk6GJQsqaUBKTNV-1">
          <mxGeometry x="500" y="1050" width="150" height="50" as="geometry" />
        </mxCell>
        <mxCell id="l6OPGBZG9V-GJjDotJNE-167" style="edgeStyle=orthogonalEdgeStyle;rounded=0;orthogonalLoop=1;jettySize=auto;html=1;exitX=0.5;exitY=1;exitDx=0;exitDy=0;entryX=0.5;entryY=0;entryDx=0;entryDy=0;entryPerimeter=0;" edge="1" parent="WIyWlLk6GJQsqaUBKTNV-1" source="l6OPGBZG9V-GJjDotJNE-166" target="l6OPGBZG9V-GJjDotJNE-153">
          <mxGeometry relative="1" as="geometry" />
        </mxCell>
      </root>
    </mxGraphModel>
  </diagram>
</mxfile>
